<svg width="50" height="50" viewBox="0 0 50 50" fill="none" xmlns="http://www.w3.org/2000/svg">
                                    <path d="M10.2605 44.1667C9.73963 43.6979 9.21879 43.125 8.75004 42.6042L10.3125 41.25C10.7292 41.7188 11.198 42.2396 11.6667 42.6563L10.2605 44.1667Z" fill="#3D4152"></path>
                                    <path d="M6.82296 40C6.45837 39.375 6.09379 38.75 5.72921 38.125L7.55212 37.1875C7.86462 37.7604 8.17712 38.3333 8.54171 38.9063L6.82296 40ZM4.53129 35.1042C4.32296 34.4271 4.11462 33.6979 3.95837 33.0208L5.98962 32.6042C6.14587 33.2292 6.30212 33.8542 6.51046 34.4792L4.53129 35.1042ZM3.54171 29.7917C3.48962 29.3229 3.48962 28.9063 3.48962 28.4375C3.48962 28.1771 3.48962 27.9167 3.48962 27.6042L5.57296 27.7083C5.57296 27.9688 5.57296 28.1771 5.57296 28.4375C5.57296 28.8542 5.57296 29.2708 5.62504 29.6354L3.54171 29.7917ZM5.88546 24.7917L3.85421 24.4271C4.01046 23.6979 4.16671 23.0208 4.37504 22.3438L6.35421 22.9167C6.14587 23.5417 5.98962 24.1667 5.88546 24.7917ZM7.39587 20.1563L5.52087 19.2708C5.83337 18.6458 6.14587 17.9688 6.56254 17.3438L8.33338 18.3854C7.96879 19.0104 7.65629 19.5833 7.39587 20.1563ZM40.5209 43.3854L39.0625 41.9271C39.5313 41.4583 39.948 40.9375 40.3646 40.4688L41.9792 41.7188C41.5105 42.2917 41.0417 42.8646 40.5209 43.3854ZM43.75 39.0104L41.9792 38.0208C42.2917 37.4479 42.6042 36.875 42.8646 36.25L44.7396 37.0833C44.4271 37.7604 44.1146 38.3854 43.75 39.0104ZM45.7813 34.0625L43.8021 33.5417C43.9584 32.9167 44.1146 32.2917 44.2188 31.6146L46.2501 31.9271C46.1459 32.6042 45.9896 33.3333 45.7813 34.0625ZM46.5105 28.6979H44.4271V28.4896C44.4271 27.9167 44.375 27.2917 44.323 26.7188L46.3542 26.5104C46.4063 27.1354 46.4584 27.8125 46.4584 28.4375L46.5105 28.6979ZM43.9063 23.8021C43.7501 23.1771 43.5417 22.5521 43.3334 21.9271L45.2605 21.25C45.5209 21.9271 45.7292 22.6042 45.8855 23.3333L43.9063 23.8021ZM42.1355 19.2708C41.823 18.6979 41.5105 18.125 41.1459 17.6042L42.8646 16.4583C43.2813 17.0313 43.6459 17.6563 44.0105 18.3333L42.1355 19.2708Z" fill="#3D4152"></path>
                                    <path d="M11.5105 1.30209H38.4896L41.9792 8.22918H8.02087L11.5105 1.30209Z" fill="#A6C44A"></path>
                                    <path d="M43.6979 9.27082H6.35413L10.8854 0.260406H39.1666L43.6979 9.27082ZM9.68746 7.18749H40.3645L37.9166 2.29166H12.1875L9.68746 7.18749Z" fill="#3D4152"></path>
                                    <path d="M15 48.6979H35L36.25 38.8542H13.75L15 48.6979Z" fill="white"></path>
                                    <path d="M35.9375 49.7396H14.0625L12.6041 37.8125H37.4479L35.9375 49.7396ZM15.8854 47.6563H34.1145L35.1041 39.8438H14.8958L15.8854 47.6563Z" fill="#3D4152"></path>
                                    <path d="M40.052 8.22919H9.94788L11.1458 18.0729H38.8541L40.052 8.22919Z" fill="white"></path>
                                    <path d="M39.7396 19.1146H10.2605L8.80212 7.1875H41.25L39.7396 19.1146ZM12.0834 17.0313H37.9167L38.9063 9.21875H11.0938L12.0834 17.0313Z" fill="#3D4152"></path>
                                    <path d="M11.1459 18.0729L13.75 38.8542H36.25L38.8542 18.0729H11.1459Z" fill="#FC8019"></path>
                                    <path d="M37.1354 39.8958H12.8646L10 17.0833H40L37.1354 39.8958ZM14.6354 37.8125H35.3125L37.6563 19.1146H12.3437L14.6354 37.8125Z" fill="#FC8019"></path>
                                    <path d="M25 35.5729C28.1353 35.5729 30.677 32.4016 30.677 28.4896C30.677 24.5776 28.1353 21.4062 25 21.4062C21.8646 21.4062 19.3229 24.5776 19.3229 28.4896C19.3229 32.4016 21.8646 35.5729 25 35.5729Z" fill="white"></path>
                                    <path d="M25 36.5625C21.3021 36.5625 18.2812 32.9167 18.2812 28.4375C18.2812 23.9583 21.3021 20.3646 25 20.3646C28.6979 20.3646 31.7188 24.0104 31.7188 28.4896C31.7188 32.9688 28.6979 36.5625 25 36.5625ZM25 22.3958C22.4479 22.3958 20.3646 25.1042 20.3646 28.4375C20.3646 31.7708 22.4479 34.4792 25 34.4792C27.5521 34.4792 29.6354 31.7708 29.6354 28.4375C29.6354 25.1042 27.5521 22.3958 25 22.3958Z" fill="#3D4152"></path>
                                    <path d="M24.5313 35.7812C23.9584 34.3229 23.9063 32.7604 24.3229 31.25C24.4271 30.8854 24.5834 30.5208 24.6875 30.2083C24.8438 29.7396 25 29.3229 25.1042 28.9583C25.2084 28.2812 25.1042 27.5 24.7917 26.7187C24.4792 25.9375 23.9584 25.1562 23.4375 24.4271C23.125 24.0104 22.8646 23.5417 22.6563 23.0208C22.3959 22.2917 22.3438 21.5625 22.6042 20.9375L24.5313 21.7187C24.4792 21.875 24.4792 22.0833 24.5834 22.2917C24.6875 22.6042 24.8959 22.9167 25.1563 23.2292C25.7292 24.0625 26.3021 24.9479 26.7188 25.9375C27.1875 27.0833 27.3438 28.2812 27.1875 29.3229C27.0834 29.9479 26.875 30.4687 26.6667 30.9896C26.5625 31.3021 26.4584 31.5625 26.3542 31.875C26.0417 32.9167 26.0938 34.0625 26.5104 35.0521L24.5313 35.7812Z" fill="#3D4152"></path>
                                </svg>