<svg width="50" height="50" viewBox="0 0 50 50" fill="none" xmlns="http://www.w3.org/2000/svg">
                                    <path d="M33.5417 33.0729H16.6146V44.6354H33.5417V33.0729Z" fill="#A6C44A"></path>
                                    <path d="M38.0208 10.4167C37.8125 10.4167 37.5521 10.4167 37.3438 10.4688C35.7292 5.26043 30.5208 1.45834 24.3229 1.45834C18.8542 1.45834 14.1146 4.42709 11.9792 8.75001C6.04167 9.37501 1.40625 14.0104 1.40625 19.6875C1.40625 25.7813 6.82292 30.7813 13.4375 30.7813C17.3958 30.7813 20.9375 29.0104 23.125 26.3021C23.4896 26.3542 23.9063 26.3542 24.3229 26.3542C26.0417 26.3542 27.7083 26.0417 29.2708 25.4688C31.1458 28.0729 34.375 29.7917 38.0729 29.7917C43.9063 29.7917 48.6458 25.4688 48.6458 20.1042C48.6458 14.7396 43.8542 10.4167 38.0208 10.4167Z" fill="#FC8019"></path>
                                    <path d="M13.4895 31.7708C6.24996 31.7708 0.416626 26.3542 0.416626 19.6875C0.416626 13.75 5.10413 8.69791 11.3541 7.76041C13.802 3.28124 18.8541 0.416656 24.3229 0.416656C30.5208 0.416656 36.0416 4.06249 38.0729 9.42707C44.427 9.42707 49.6354 14.2187 49.6354 20.1562C49.6354 26.0417 44.427 30.8854 38.0729 30.8854C34.4791 30.8854 31.0937 29.3229 28.9062 26.7187C27.3958 27.1875 25.8854 27.3958 24.3229 27.3958C24.0625 27.3958 23.802 27.3958 23.5937 27.3958C21.0937 30.1562 17.4479 31.7708 13.4895 31.7708ZM24.3229 2.44791C19.427 2.44791 14.9479 5.10416 12.9166 9.16666L12.6562 9.68749L12.0833 9.73957C6.61454 10.3646 2.44788 14.6354 2.44788 19.6875C2.44788 25.2083 7.39579 29.7396 13.4895 29.7396C17.0312 29.7396 20.2604 28.2292 22.3437 25.625L22.7083 25.2083L23.2291 25.2604C23.5416 25.2604 23.9062 25.3125 24.3229 25.3125C25.8854 25.3125 27.4479 25.0521 28.9062 24.5312L29.6354 24.2708L30.1041 24.8958C31.875 27.3437 34.8437 28.8021 38.0729 28.8021C39.1666 28.8021 40.2604 28.6458 41.302 28.2813L43.0208 27.7083L37.8125 49.5833ZM13.802 47.5521H36.25L40.2604 30.625C39.5312 30.7292 38.802 30.8333 38.0729 30.8333C34.4791 30.8333 31.0937 29.2708 28.9062 26.6667C27.3958 27.1354 25.8854 27.3438 24.3229 27.3438C24.0625 27.3438 23.802 27.3438 23.5937 27.3438C21.0937 30.1563 17.4479 31.7708 13.4895 31.7708C12.2916 31.7708 11.0937 31.6146 9.99996 31.3542L13.802 47.5521Z" fill="#3D4152"></path>
                                    <path d="M21.0416 35.2083H19.0104V42.0312H21.0416V35.2083Z" fill="#3D4152"></path>
                                    <path d="M26.0937 35.2083H24.0625V42.0312H26.0937V35.2083Z" fill="#3D4152"></path>
                                    <path d="M31.0938 35.2083H29.0625V42.0312H31.0938V35.2083Z" fill="#3D4152"></path>
                                    <path d="M12.1088 24.8571L10.4757 23.3246L9.08571 24.8058L10.7188 26.3383L12.1088 24.8571Z" fill="#3D4152"></path>
                                    <path d="M13.7297 15.7257L12.0966 14.1931L10.7066 15.6743L12.3397 17.2069L13.7297 15.7257Z" fill="#3D4152"></path>
                                    <path d="M39.8665 16.5007L38.2336 14.9679L36.8434 16.4489L38.4763 17.9817L39.8665 16.5007Z" fill="#3D4152"></path>
                                    <path d="M31.5916 18.5252L29.9585 16.9926L28.5685 18.4738L30.2016 20.0064L31.5916 18.5252Z" fill="#3D4152"></path>
                                    <path d="M42.2828 24.0549L40.6497 22.5223L39.2597 24.0035L40.8928 25.5361L42.2828 24.0549Z" fill="#3D4152"></path>
                                    <path d="M21.5555 20.0502L19.9224 18.5176L18.5324 19.9988L20.1655 21.5313L21.5555 20.0502Z" fill="#3D4152"></path>
                                    <path d="M23.0601 11.1296L21.427 9.59708L20.037 11.0783L21.6701 12.6108L23.0601 11.1296Z" fill="#3D4152"></path>
                                    <path d="M30.8003 8.65548L29.1672 7.12292L27.7772 8.6041L29.4103 10.1367L30.8003 8.65548Z" fill="#3D4152"></path>
                                </svg>